# This file uses centimeters as units for non-parametric coordinates.

mtllib ship.mtl
g default
v -1.913770 0.318205 4.850894
v 1.913770 0.318205 4.850894
v -0.736105 1.674772 5.071728
v 0.736105 1.674772 5.071728
v -1.146894 1.351138 -4.738583
v 1.146894 1.351138 -4.738583
v -1.146894 0.318205 -4.850894
v 1.146894 0.318205 -4.850894
v 2.418867 0.577593 -3.758342
v 2.858108 0.822639 -0.489394
v 2.418867 1.561135 -3.758342
v 2.858108 1.316089 -0.489394
v -2.418867 0.577593 -3.758342
v -2.858108 0.822639 -0.489394
v -2.858108 1.316089 -0.489394
v -2.418867 1.561135 -3.758342
v 4.315335 0.577593 -3.758342
v 3.876094 0.822639 -0.489394
v 4.315336 1.561135 -3.758342
v 3.876095 1.316089 -0.489394
v -4.315335 0.577593 -3.758342
v -3.876094 0.822639 -0.489394
v -3.876095 1.316089 -0.489394
v -4.315336 1.561135 -3.758342
v -0.750253 0.321306 7.383452
v 0.750253 0.321306 7.383452
v 0.471201 0.855873 7.383452
v -0.471201 0.855873 7.383452
v -0.599849 2.181371 -0.901264
v 0.599849 2.181371 -0.901264
v 0.341902 2.181371 -4.551061
v -0.341902 2.181371 -4.551061
v 0.743806 2.284072 4.630060
v 1.913769 2.277048 -4.850894
v 2.418867 2.277048 -0.489394
v 2.418867 2.277048 -3.043691
v -0.743806 2.284072 4.630060
v -1.913769 2.277048 -4.850894
v -2.418867 2.277048 -3.043691
v -2.418867 2.277048 -0.489394
v -0.473711 2.695681 -0.901264
v 0.473711 2.695681 -0.901264
v 0.270006 2.695681 -4.551061
v -0.270006 2.695681 -4.551061
v -0.165889 3.723924 -1.464910
v 0.165889 3.723924 -1.464910
v 0.165888 3.315018 -5.073132
v -0.165888 3.315018 -5.073132
v -1.913769 0.042197 -4.850894
v 1.913769 0.042197 -4.850894
v 1.913770 0.042197 4.851269
v -1.913770 0.042197 4.851269
v 2.418867 0.042197 -3.043691
v 2.418867 0.042197 -0.489394
v -2.418867 0.042197 -0.489394
v -2.418867 0.042197 -3.043691
v 0.750253 0.045299 6.912405
v -0.750253 0.045299 6.912405
v 6.011808 0.791238 -3.466513
v 5.763390 0.929826 -1.617724
v 6.011808 1.347491 -3.466513
v 5.763391 1.208902 -1.617724
v -6.011808 0.791238 -3.466513
v -5.763390 0.929826 -1.617724
v -5.763391 1.208902 -1.617724
v -6.011808 1.347491 -3.466513
v 7.247981 3.954911 -2.920171
v 7.087903 3.880567 -1.819296
v 6.911034 3.537234 -2.914536
v 6.750957 3.398646 -1.824931
v -7.247981 3.954911 -2.920172
v -7.087903 3.880567 -1.819296
v -6.750957 3.398646 -1.824931
v -6.911034 3.537234 -2.914537
v -0.541539 1.307178 -6.033866
v 0.541539 1.307178 -6.033866
v 0.541539 0.332662 -5.921555
v -0.541539 0.332662 -5.921555
v -0.281249 1.051092 -6.004651
v 0.281249 1.051092 -6.004651
v 0.281249 0.559938 -5.947842
v -0.281249 0.559938 -5.947842
v -0.281249 1.078240 -5.581069
v 0.281249 1.078240 -5.581069
v 0.281249 0.587086 -5.524261
v -0.281249 0.587086 -5.524261
vt 0.275508 0.113909
vt 0.351864 0.305495
vt 0.318047 0.316509
vt 0.259128 0.136434
vt 0.325776 0.106133
vt 0.369229 0.299840
vt 0.380705 0.423339
vt 0.347321 0.406395
vt 0.277831 0.023173
vt 0.296642 0.017047
vt 0.335485 0.102956
vt 0.396692 0.290896
vt 0.399329 0.455427
vt 0.368033 0.469991
vt 0.311754 0.030460
vt 0.415316 0.412067
vt 0.425966 0.380782
vt 0.436965 0.447542
vt 0.446678 0.444378
vt 0.448727 0.485384
vt 0.415721 0.500505
vt 0.085225 0.423339
vt 0.114066 0.305496
vt 0.147882 0.316509
vt 0.118608 0.406395
vt 0.190422 0.113909
vt 0.206802 0.136434
vt 0.066601 0.455427
vt 0.097896 0.469991
vt 0.140153 0.106133
vt 0.096701 0.299840
vt 0.028964 0.447542
vt 0.050613 0.412067
vt 0.169287 0.017047
vt 0.188098 0.023173
vt 0.069237 0.290896
vt 0.130444 0.102956
vt 0.050209 0.500505
vt 0.017202 0.485384
vt 0.019251 0.444378
vt 0.039963 0.380782
vt 0.154176 0.030460
vt 0.584481 0.020305
vt 0.761491 0.020607
vt 0.761453 0.113217
vt 0.584463 0.112917
vt 0.761379 0.298371
vt 0.584379 0.298071
vt 0.411841 0.020305
vt 0.524730 0.020305
vt 0.524730 0.112917
vt 0.411841 0.112917
vt 0.524730 0.298072
vt 0.411841 0.298072
vt 0.829960 0.726744
vt 0.829960 0.647726
vt 0.982630 0.647726
vt 0.982630 0.726744
vt 0.829960 0.908336
vt 0.829960 0.829317
vt 0.915761 0.829317
vt 0.915761 0.908336
vt 0.982630 0.829317
vt 0.982630 0.908336
vt 0.579888 0.647726
vt 0.579888 0.726744
vt 0.396500 0.726744
vt 0.396500 0.647726
vt 0.579888 0.831629
vt 0.579888 0.910648
vt 0.507086 0.910648
vt 0.507086 0.831629
vt 0.396500 0.910648
vt 0.396500 0.831629
vt 0.222305 0.940919
vt 0.222305 0.889351
vt 0.266346 0.889351
vt 0.266346 0.940919
vt 0.369447 0.889351
vt 0.369447 0.940919
vt 0.325406 0.940919
vt 0.325406 0.889351
vt 0.524730 0.298070
vt 0.584472 0.298070
vt 0.584472 0.387927
vt 0.524730 0.387927
vt 0.966443 0.601004
vt 0.784842 0.601004
vt 0.784841 0.140675
vt 0.966443 0.140675
vt 0.760877 0.515259
vt 0.760877 0.394068
vt 0.840046 0.042882
vt 0.911239 0.042882
vt 0.990408 0.394068
vt 0.990408 0.515259
vt 0.840046 0.020533
vt 0.911239 0.020533
vt 0.300281 0.469923
vt 0.318047 0.406355
vt 0.244991 0.459376
vt 0.254064 0.330996
vt 0.165649 0.469923
vt 0.220939 0.459376
vt 0.211865 0.330996
vt 0.207072 0.120899
vt 0.258857 0.120899
vt 0.147882 0.406355
vt 0.216390 0.039584
vt 0.249539 0.039585
vt 0.705404 0.726744
vt 0.705404 0.647726
vt 0.778949 0.647726
vt 0.778949 0.726744
vt 0.705404 0.908337
vt 0.705404 0.829318
vt 0.778951 0.829317
vt 0.778951 0.908336
vt 0.690196 0.647726
vt 0.690196 0.726744
vt 0.649662 0.726744
vt 0.649663 0.647726
vt 0.690196 0.831629
vt 0.690196 0.910648
vt 0.649663 0.910648
vt 0.649663 0.831629
vt 0.192623 0.502491
vt 0.273306 0.502491
vt 0.252013 0.548052
vt 0.213917 0.548052
vt 0.108851 0.608975
vt 0.341922 0.608975
vt 0.280412 0.717764
vt 0.170361 0.717764
vt 0.325406 0.985393
vt 0.266346 0.985393
vt 0.266346 0.844877
vt 0.325406 0.844876
vt 0.206576 0.020780
vt 0.259355 0.020783
vt 0.705404 0.973906
vt 0.778952 0.973906
vt 0.829960 0.908335
vt 0.829960 0.973906
vt 0.982630 0.908335
vt 0.982630 0.973906
vt 0.829960 0.726744
vt 0.829960 0.829316
vt 0.982630 0.726744
vt 0.982630 0.829315
vt 0.579888 0.831629
vt 0.579888 0.726744
vt 0.396500 0.831629
vt 0.396500 0.726744
vt 0.690196 0.973906
vt 0.649663 0.973906
vt 0.579888 0.973906
vt 0.579888 0.910648
vt 0.396500 0.973906
vt 0.396500 0.910648
vt 0.584472 0.486972
vt 0.524730 0.486972
vt 0.524730 0.442037
vt 0.584472 0.442037
vt 0.030929 0.580930
vt 0.419844 0.580930
vt 0.280412 0.816784
vt 0.170361 0.816784
vt 0.196809 0.790763
vt 0.253964 0.790763
vt 0.196809 0.740857
vt 0.253964 0.740857
vn 0.000000 -0.631820 0.775116
vn 0.000000 -0.631820 0.775116
vn 0.000000 0.000000 1.000000
vn 0.000000 0.000000 1.000000
vn 0.000000 0.993640 -0.112605
vn 0.000000 0.993640 -0.112605
vn 0.000000 0.993640 -0.112605
vn 0.000000 0.993640 -0.112605
vn 0.000000 -0.114898 -0.993377
vn 0.000000 -0.114898 -0.993377
vn 0.000000 -0.114898 -0.993377
vn 0.000000 -0.114898 -0.993377
vn 0.000000 -1.000000 0.000000
vn -0.000000 -1.000000 0.000000
vn -0.000000 -1.000000 0.000000
vn 0.000000 -1.000000 0.000000
vn -0.798968 0.598512 -0.058595
vn -0.798968 0.598512 -0.058595
vn -0.798968 0.598512 -0.058595
vn -0.798968 0.598512 -0.058595
vn 0.798968 0.598512 -0.058595
vn 0.798968 0.598512 -0.058595
vn 0.798968 0.598512 -0.058595
vn 0.798968 0.598512 -0.058595
vn -0.000000 -1.000000 0.000000
vn -0.000000 -1.000000 0.000000
vn 0.677304 0.105341 -0.728123
vn 0.704266 -0.033647 -0.709139
vn 0.867106 0.023376 -0.497576
vn 0.820436 0.014553 -0.571553
vn 0.002740 0.999996 -0.000317
vn 0.002740 0.999996 -0.000317
vn 0.002740 0.999996 -0.000317
vn 0.002740 0.999996 -0.000317
vn 0.860434 0.432995 0.268645
vn 0.930112 0.263632 0.255715
vn 0.972848 0.152246 0.174322
vn 0.887740 0.410412 0.208518
vn 0.000000 -1.000000 0.000000
vn 0.000000 -1.000000 0.000000
vn -0.930112 0.263632 0.255715
vn -0.860434 0.432995 0.268645
vn -0.887740 0.410412 0.208518
vn -0.972848 0.152246 0.174322
vn -0.002740 0.999996 -0.000317
vn -0.002740 0.999996 -0.000317
vn -0.002740 0.999996 -0.000317
vn -0.002740 0.999996 -0.000317
vn -0.704266 -0.033647 -0.709139
vn -0.677304 0.105341 -0.728123
vn -0.820436 0.014553 -0.571553
vn -0.867106 0.023376 -0.497576
vn 0.000000 -0.997202 0.074752
vn 0.000000 -0.997202 0.074752
vn 0.000000 -0.997202 0.074752
vn 0.000000 -0.997202 0.074752
vn 0.000000 0.000000 -1.000000
vn 0.000000 0.000000 -1.000000
vn 0.000000 0.000000 -1.000000
vn 0.000000 0.000000 -1.000000
vn -0.000000 0.997202 0.074752
vn -0.000000 0.997202 0.074752
vn -0.000000 0.997202 0.074752
vn -0.000000 0.997202 0.074752
vn 0.000000 0.000000 1.000000
vn 0.000000 0.000000 1.000000
vn 0.000000 0.000000 1.000000
vn 0.000000 0.000000 1.000000
vn 0.000000 -0.997202 0.074752
vn 0.000000 -0.997202 0.074752
vn 0.000000 -0.997202 0.074752
vn 0.000000 -0.997202 0.074752
vn 0.000000 0.000000 1.000000
vn 0.000000 0.000000 1.000000
vn 0.000000 0.000000 1.000000
vn 0.000000 0.000000 1.000000
vn 0.000000 0.997202 0.074752
vn 0.000000 0.997202 0.074752
vn 0.000000 0.997202 0.074752
vn 0.000000 0.997202 0.074752
vn 0.000000 0.000000 -1.000000
vn 0.000000 0.000000 -1.000000
vn 0.000000 0.000000 -1.000000
vn 0.000000 0.000000 -1.000000
vn 0.000000 -0.999999 0.001505
vn 0.000000 -0.999999 0.001505
vn 0.000000 -0.999999 0.001505
vn 0.000000 -0.999999 0.001505
vn 0.768280 0.554440 0.319911
vn 0.768280 0.554439 0.319911
vn 0.801220 0.492114 0.340398
vn 0.000000 0.942606 0.333906
vn 0.000000 0.942606 0.333906
vn 0.000000 0.942606 0.333906
vn 0.000000 0.942606 0.333906
vn -0.768280 0.554440 0.319911
vn -0.801220 0.492114 0.340398
vn -0.768280 0.554439 0.319911
vn 0.000000 0.999828 -0.018564
vn 0.000000 0.999828 -0.018564
vn 0.000000 0.999828 -0.018564
vn 0.000000 0.999828 -0.018564
vn -0.093650 0.995580 -0.007037
vn -0.093650 0.995580 -0.007037
vn -0.093650 0.995580 -0.007037
vn -0.093650 0.995580 -0.007037
vn 0.000000 0.952673 0.303996
vn 0.000000 0.952673 0.303996
vn 0.000000 0.952673 0.303996
vn 0.000000 0.952673 0.303996
vn 0.093649 0.995580 -0.007037
vn 0.093649 0.995580 -0.007037
vn 0.093649 0.995580 -0.007037
vn 0.093650 0.995580 -0.007037
vn 0.929596 0.318205 0.186001
vn 0.892526 0.331342 0.305958
vn 0.968346 0.210541 -0.134084
vn 0.832973 -0.199768 -0.515993
vn -0.968346 0.210541 -0.134084
vn -0.832973 -0.199768 -0.515993
vn -0.929596 0.318205 0.186001
vn -0.892526 0.331342 0.305958
vn 0.000000 0.586902 0.809658
vn 0.000000 0.586902 0.809658
vn 0.000000 0.586902 0.809658
vn 0.000000 0.586902 0.809658
vn 0.000000 -0.120416 -0.992724
vn 0.000000 -0.120416 -0.992724
vn 0.000000 -0.120416 -0.992724
vn 0.000000 -0.120416 -0.992724
vn 0.000000 0.000000 1.000000
vn 0.000000 0.000000 1.000000
vn 0.000000 0.246279 0.969199
vn 0.000000 0.246279 0.969199
vn 0.980079 0.188689 -0.061984
vn 0.980079 0.188689 -0.061984
vn 0.976774 0.209237 -0.046190
vn 0.977668 0.204077 -0.050169
vn 0.000000 0.000000 -1.000000
vn 0.000000 0.000000 -1.000000
vn 0.000000 -0.333706 -0.942677
vn 0.000000 -0.333706 -0.942677
vn -0.980079 0.188689 -0.061984
vn -0.980079 0.188689 -0.061984
vn -0.977668 0.204077 -0.050169
vn -0.976774 0.209237 -0.046190
vn 0.000000 0.480682 0.876895
vn 0.000000 0.480682 0.876895
vn 0.975208 0.217710 -0.039636
vn 0.975208 0.217710 -0.039636
vn 0.000000 -0.644514 -0.764592
vn 0.000000 -0.644514 -0.764592
vn -0.975208 0.217710 -0.039636
vn -0.975208 0.217710 -0.039636
vn 0.000000 0.000000 -1.000000
vn 0.000000 0.000000 -1.000000
vn 0.000000 0.000000 -1.000000
vn 0.000000 0.000000 -1.000000
vn 0.951308 -0.290547 -0.102931
vn 0.800875 0.300935 -0.517723
vn 0.928982 -0.367744 0.041923
vn 0.908843 -0.380617 0.170689
vn -0.928982 -0.367744 0.041923
vn -0.908843 -0.380617 0.170689
vn -0.951308 -0.290547 -0.102931
vn -0.800875 0.300935 -0.517723
vn 0.832122 -0.359829 0.422015
vn 0.000000 -0.862797 0.505551
vn 0.000000 -0.862797 0.505551
vn -0.832122 -0.359829 0.422015
vn 0.109383 -0.990015 0.088911
vn 0.109383 -0.990015 0.088911
vn 0.577668 -0.806092 0.128511
vn 0.521941 -0.843770 0.125016
vn 0.169531 -0.000000 -0.985525
vn 0.169531 -0.000000 -0.985525
vn 0.126287 0.070185 -0.989508
vn 0.159959 0.015698 -0.986999
vn 0.109383 0.990015 0.088911
vn 0.109383 0.990015 0.088911
vn -0.269232 0.962351 0.037339
vn -0.392022 0.919778 0.018081
vn 0.513141 -0.000001 0.858304
vn 0.513141 -0.000001 0.858304
vn 0.513141 -0.000001 0.858304
vn 0.513141 -0.000001 0.858304
vn -0.109383 -0.990015 0.088911
vn -0.109383 -0.990015 0.088911
vn -0.521941 -0.843770 0.125016
vn -0.577668 -0.806092 0.128511
vn -0.513141 -0.000001 0.858304
vn -0.513141 -0.000001 0.858304
vn -0.513141 -0.000001 0.858304
vn -0.513141 -0.000001 0.858304
vn -0.109383 0.990015 0.088911
vn -0.109383 0.990015 0.088911
vn 0.392023 0.919778 0.018081
vn 0.269233 0.962351 0.037339
vn -0.169531 -0.000000 -0.985525
vn -0.169531 -0.000000 -0.985525
vn -0.159958 0.015698 -0.986999
vn -0.126286 0.070185 -0.989508
vn 0.911247 -0.389219 0.134675
vn 0.911247 -0.389219 0.134675
vn 0.057087 0.178747 -0.982238
vn 0.057087 0.178747 -0.982238
vn -0.912176 0.400001 -0.089079
vn -0.912176 0.400001 -0.089079
vn -0.087621 0.118067 0.989132
vn -0.087621 0.118067 0.989132
vn -0.087621 0.118067 0.989132
vn -0.087621 0.118067 0.989132
vn -0.911247 -0.389219 0.134675
vn -0.911247 -0.389219 0.134675
vn 0.087622 0.118067 0.989132
vn 0.087622 0.118067 0.989132
vn 0.087622 0.118067 0.989132
vn 0.087622 0.118067 0.989132
vn 0.912176 0.400001 -0.089079
vn 0.912176 0.400001 -0.089079
vn -0.057085 0.178747 -0.982238
vn -0.057085 0.178747 -0.982238
vn 0.000000 0.999425 -0.033918
vn 0.000000 0.999425 -0.033918
vn 0.000000 0.999425 -0.033918
vn 0.000000 0.999425 -0.033918
vn 0.890213 0.000000 -0.455544
vn 0.890213 0.000000 -0.455544
vn 0.890213 0.000000 -0.455544
vn 0.890213 0.000000 -0.455544
vn 0.000000 -0.999909 -0.013502
vn 0.000000 -0.999909 -0.013502
vn 0.000000 -0.999909 -0.013502
vn 0.000000 -0.999909 -0.013502
vn -0.890213 0.000000 -0.455544
vn -0.890213 0.000000 -0.455544
vn -0.890213 0.000000 -0.455544
vn -0.890213 0.000000 -0.455544
vn 0.000000 -0.113347 -0.993555
vn 0.000000 -0.113347 -0.993555
vn 0.000000 -0.113347 -0.993556
vn 0.000000 -0.113347 -0.993556
vn 0.000757 -0.114627 -0.993408
vn 0.000757 -0.114627 -0.993408
vn 0.000757 -0.114627 -0.993408
vn 0.000757 -0.114627 -0.993408
vn 0.000000 -0.114897 -0.993377
vn 0.000000 -0.114897 -0.993377
vn 0.000000 -0.114897 -0.993377
vn 0.000000 -0.114897 -0.993377
vn -0.000757 -0.114627 -0.993408
vn -0.000757 -0.114627 -0.993408
vn -0.000757 -0.114627 -0.993408
vn -0.000757 -0.114627 -0.993408
vn 0.000000 -0.997953 0.063960
vn 0.000000 -0.997953 0.063960
vn 0.000000 -0.997953 0.063960
vn 0.000000 -0.997953 0.063960
vn -1.000000 0.000000 0.000000
vn -1.000000 0.000000 0.000000
vn -1.000000 0.000000 0.000000
vn -1.000000 0.000000 0.000000
vn 0.000000 0.997952 -0.063960
vn 0.000000 0.997952 -0.063960
vn 0.000000 0.997952 -0.063960
vn 0.000000 0.997952 -0.063960
vn 1.000000 0.000000 0.000000
vn 1.000000 0.000000 0.000000
vn 1.000000 0.000000 0.000000
vn 1.000000 0.000000 0.000000
s 1
g daShip
usemtl phong1SG
f 25/139/1 26/140/2 27/110/3 28/109/4
s off
f 45/83/5 46/84/6 47/85/7 48/86/8
f 83/81/9 84/78/10 85/77/11 86/82/12
s 2
f 49/87/13 50/88/14 51/89/15 52/90/16
s off
f 68/63/17 67/64/18 69/62/19 70/61/20
f 71/73/21 72/74/22 73/72/23 74/71/24
s 2
f 51/89/15 50/88/14 53/91/25 54/92/26
s 3
f 8/18/27 6/13/28 11/7/29 9/16/30
s off
f 34/99/31 33/4/32 35/3/33 36/100/34
s 3
f 4/1/35 2/5/36 10/6/37 12/2/38
s 2
f 49/87/13 52/90/16 55/95/39 56/96/40
s 5
f 1/30/41 3/26/42 15/23/43 14/31/44
s off
f 37/27/45 38/103/46 39/108/47 40/24/48
s 5
f 5/28/49 7/32/50 13/33/51 16/22/52
s off
f 10/111/53 9/112/54 17/113/55 18/114/56
f 9/141/57 11/115/58 19/118/59 17/142/60
f 11/115/61 12/116/62 20/117/63 19/118/64
f 12/116/65 10/111/66 18/114/67 20/117/68
f 13/119/69 14/120/70 22/121/71 21/122/72
f 14/120/73 15/123/74 23/126/75 22/121/76
f 15/123/77 16/124/78 24/125/79 23/126/80
f 16/124/81 13/155/82 21/156/83 24/125/84
f 52/90/85 51/89/86 57/93/87 58/94/88
s 3
f 2/5/36 4/1/89 27/9/90 26/10/91
s off
f 4/107/92 3/106/93 28/109/94 27/110/95
s 5
f 3/26/96 1/30/41 25/34/97 28/35/98
s off
f 37/27/99 33/4/100 30/102/101 29/105/102
f 33/4/103 34/99/104 31/101/105 30/102/106
f 34/99/107 38/103/108 32/104/109 31/101/110
f 38/103/111 37/27/112 29/105/113 32/104/114
s 3
f 4/1/35 12/2/38 35/3/115 33/4/116
f 12/2/38 11/7/29 36/8/117 35/3/115
f 11/7/29 6/13/28 34/14/118 36/8/117
s 5
f 5/28/49 16/22/52 39/25/119 38/29/120
f 16/22/52 15/23/43 40/24/121 39/25/119
f 15/23/43 3/26/42 37/27/122 40/24/121
s off
f 3/106/123 4/107/124 33/4/125 37/27/126
f 6/128/127 5/127/128 38/103/129 34/99/130
s 9
f 29/50/131 30/43/132 42/46/133 41/51/134
s 10
f 30/43/135 31/44/136 43/45/137 42/46/138
s 11
f 31/161/139 32/162/140 44/163/141 43/164/142
s 12
f 32/49/143 29/50/144 41/51/145 44/52/146
s 9
f 41/51/134 42/46/133 46/84/147 45/83/148
s 10
f 42/46/138 43/45/137 47/47/149 46/48/150
s 11
f 43/164/142 44/163/141 48/86/151 47/85/152
s 12
f 44/52/146 41/51/145 45/53/153 48/54/154
s off
f 7/132/155 8/131/156 50/165/157 49/166/158
s 3
f 8/18/27 9/16/30 53/17/159 50/19/160
f 9/16/30 10/6/37 54/12/161 53/17/159
f 10/6/37 2/5/36 51/11/162 54/12/161
s 5
f 1/30/41 14/31/44 55/36/163 52/37/164
f 14/31/44 13/33/51 56/41/165 55/36/163
f 13/33/51 7/32/50 49/40/166 56/41/165
s 3
f 2/5/36 26/10/91 57/15/167 51/11/162
s 1
f 26/97/2 25/98/1 58/94/168 57/93/169
s 5
f 25/34/97 1/30/41 52/37/164 58/42/170
s 13
f 18/114/171 17/113/172 59/56/173 60/55/174
s 14
f 17/142/175 19/118/176 61/143/177 59/144/178
s 15
f 19/118/179 20/117/180 62/60/181 61/59/182
s off
f 20/117/183 18/114/184 60/147/185 62/148/186
s 16
f 21/122/187 22/121/188 64/66/189 63/65/190
s off
f 22/121/191 23/126/192 65/151/193 64/152/194
s 17
f 23/126/195 24/125/196 66/70/197 65/69/198
s 18
f 24/125/199 21/156/200 63/157/201 66/158/202
s 13
f 60/55/174 59/56/173 67/57/203 68/58/204
s 14
f 59/144/178 61/143/177 69/145/205 67/146/206
s 15
f 61/59/182 62/60/181 70/61/207 69/62/208
s off
f 62/148/209 60/147/210 68/149/211 70/150/212
s 16
f 63/65/190 64/66/189 72/67/213 71/68/214
s off
f 64/152/215 65/151/216 73/153/217 72/154/218
s 17
f 65/69/198 66/70/197 74/71/219 73/72/220
s 18
f 66/158/202 63/157/201 71/159/221 74/160/222
s off
f 5/127/223 6/128/224 76/129/225 75/130/226
f 6/13/227 8/18/228 77/20/229 76/21/230
f 8/131/231 7/132/232 78/133/233 77/134/234
f 7/32/235 5/28/236 75/38/237 78/39/238
f 75/167/239 76/168/240 80/169/241 79/170/242
f 76/168/243 77/134/244 81/171/245 80/169/246
f 77/134/247 78/133/248 82/172/249 81/171/250
f 78/133/251 75/167/252 79/170/253 82/172/254
f 79/135/255 80/136/256 84/78/257 83/81/258
f 80/75/259 81/76/260 85/77/261 84/78/262
f 81/137/263 82/138/264 86/82/265 85/77/266
f 82/79/267 79/80/268 83/81/269 86/82/270
